<svg xmlns="http://www.w3.org/2000/svg" viewBox="0 0 1000 1000" fill="none"><g transform="translate(92.22,92.22) scale(0.720476) translate(-444.04,-444.01)"><path d="M0 0C-200.127 0-362.363 162.235-362.363 362.363-362.363 562.491-200.127 724.727 0 724.727 200.127 724.727 362.363 562.491 362.363 362.363 362.363 162.235 200.127 0 0 0M558.165 285.652C558.165 285.652 565.988 313.02 565.988 362.363 565.988 404.901 558.165 439.074 558.165 439.074L430.788 464.726C419.768 511.279 401.397 554.983 376.969 594.558L448.925 702.804C448.925 702.804 435.105 727.686 400.214 762.577 370.134 792.656 340.44 811.288 340.44 811.288L232.194 739.332C192.619 763.761 148.915 782.131 102.362 793.151L76.711 920.528C76.711 920.528 49.344 928.351 0 928.351-42.538 928.351-76.71 920.528-76.71 920.528L-102.363 793.151C-148.916 782.131-192.62 763.761-232.194 739.332L-340.44 811.288C-340.44 811.288-365.322 797.469-400.213 762.577-430.292 732.498-448.925 702.804-448.925 702.804L-376.97 594.558C-401.397 554.983-419.768 511.279-430.789 464.726L-558.165 439.074C-558.165 439.074-565.987 411.708-565.987 362.363-565.987 319.825-558.165 285.652-558.165 285.652L-430.789 260.002C-419.768 213.448-401.397 169.744-376.97 130.169L-448.925 21.924C-448.925 21.924-435.105-2.958-400.213-37.851-370.134-67.929-340.44-86.561-340.44-86.561L-232.194-14.606C-192.62-39.034-148.916-57.404-102.363-68.424L-76.71-195.801C-76.71-195.801-49.344-203.624 0-203.624 42.538-203.624 76.711-195.801 76.711-195.801L102.362-68.424C148.915-57.404 192.619-39.034 232.194-14.606L340.44-86.561C340.44-86.561 365.322-72.741 400.214-37.851 430.292-7.771 448.925 21.924 448.925 21.924L376.969 130.169C401.397 169.744 419.768 213.448 430.788 260.002Z" fill="currentColor" transform="matrix(1,0,0,-1,1010.0278,1372.3633)" /><path d="M0 0 174.689 40.247V50.693L0 90.942C-29.065 97.639-51.597 120.604-57.74 149.791L-92.687 315.841H-103.177L-138.125 149.791C-144.268 120.604-166.799 97.639-195.864 90.942L-370.554 50.693V40.247L-195.865 0C-166.799-6.696-144.268-29.661-138.125-58.849L-103.177-224.898H-92.687L-57.74-58.849C-51.597-29.661-29.065-6.696 0 0" fill="currentColor" transform="matrix(1,0,0,-1,1107.96,1055.4707)" /><path d="M0 0 54.068-12.458C33.088 53.798-19.767 105.983-86.414 126.063L-75.305 73.28C-42.978 57.655-16.502 31.813 0 0" fill="currentColor" transform="matrix(1,0,0,-1,1157.2158,933.95999)" /><path d="M0 0-11.109-52.783C55.538-32.703 108.393 19.482 129.373 85.738L75.305 73.281C58.802 41.468 32.326 15.626 0 0" fill="currentColor" transform="matrix(1,0,0,-1,1081.9111,1159.3203)" /><path d="M0 0-11.109 52.784C-43.435 68.41-69.911 94.251-86.413 126.064L-140.481 138.521C-119.501 72.266-66.647 20.08 0 0" fill="currentColor" transform="matrix(1,0,0,-1,949.2534,1212.1035)" /><path d="M0 0C16.502 31.812 42.978 57.654 75.304 73.279L86.413 126.063C19.766 105.982-33.088 53.798-54.068-12.458Z" fill="currentColor" transform="matrix(1,0,0,-1,862.8403,933.95999)" /><path d="M0 0 9.934-47.2C122.739-66.711 212.062-155.653 232.116-268.274L279.498-279.191C262.47-133.086 146.152-16.871 0 0" fill="currentColor" transform="matrix(1,0,0,-1,1046.772,693.7197)" /><path d="M0 0 9.934 47.2C-136.218 30.328-252.535-85.886-269.563-231.991L-222.182-221.074C-202.128-108.453-112.805-19.511 0 0" fill="currentColor" transform="matrix(1,0,0,-1,963.3496,740.9199)" /><path d="M0 0-9.934-47.2C136.218-30.328 252.535 85.886 269.563 231.991L222.182 221.074C202.128 108.454 112.805 19.511 0 0" fill="currentColor" transform="matrix(1,0,0,-1,1056.7056,1279.0801)" /><path d="M0 0-47.381 10.917C-30.353-135.188 85.964-251.402 232.115-268.274L222.182-221.074C109.377-201.562 20.054-112.62 0 0" fill="currentColor" transform="matrix(1,0,0,-1,741.168,1058.0059)" /></g></svg>