<svg xmlns="http://www.w3.org/2000/svg" viewBox="0 0 1000 1000" fill="none"><g transform="translate(67.12,137.67) scale(0.720476) translate(-431.69,-499.28)"><path d="M0 0V274.981C21.822 256.919 40.235 234.929 54.118 210.026 64.119 192.087 68.747 171.639 68.747 151.1V-9.361C45.157-8.37 22.175-5.175 0 0M-268.389 333.532C-268.389 414.816-237.967 523.714-208.695 602.592-206.625 608.69-204.886 614.516-203.229 620.272-177.115 625.89-151.76 630.476-127.673 634.158V57.894C-213.075 119.597-268.389 218.503-268.389 333.532M68.747 649.482V507.848C68.747 486.466 64.007 465.138 53.491 446.521 39.683 422.078 21.495 400.475 0 382.684V647.519C30.845 649.275 54.61 649.554 68.747 649.482M167.01 647.516V382.684C145.515 400.475 127.327 422.078 113.519 446.521 103.002 465.138 98.263 486.466 98.263 507.848V649.482C112.415 649.554 136.179 649.273 167.01 647.516M375.706 602.592C404.977 523.714 435.398 414.816 435.398 333.532 435.398 218.503 380.085 119.597 294.683 57.894V634.15C318.772 630.467 344.128 625.879 370.243 620.26 371.899 614.508 373.637 608.686 375.706 602.592M112.892 210.026C126.775 234.929 145.188 256.919 167.01 274.981V0C144.834-5.175 121.853-8.37 98.263-9.361V151.1C98.263 171.639 102.891 192.087 112.892 210.026M-98.21 322.609-94.268 321.701C-71.061 316.354-49.315 307.437-29.463 295.712V8.232C-53.648 16.079-76.701 26.279-98.21 38.745ZM-94.267 335.964-98.21 335.055V638.299C-73.43 641.525-50.336 643.854-29.463 645.506V361.953C-49.315 350.229-71.06 341.311-94.267 335.964M265.22 335.055 261.277 335.964C238.07 341.311 216.325 350.229 196.473 361.953V645.501C217.347 643.848 240.441 641.52 265.22 638.291ZM261.278 321.701 265.22 322.609V38.745C243.711 26.279 220.659 16.079 196.473 8.232V295.712C216.325 307.437 238.071 316.354 261.278 321.701M564.759 333.743C564.759 406.269 527.69 506.967 497.46 585.036 521.299 576.812 545.185 567.606 568.824 557.17L545.452 613.244C522.578 622.928 499.538 631.433 476.594 639 472.127 650.81 468.257 661.44 465.322 670.451 453.666 706.234 486.542 752.379 526.703 756.453V815.379C526.703 815.379 344.117 831.461 360.329 669.966 207.625 701.698 83.478 695.405 83.478 695.405 83.478 695.405-40.639 701.697-193.317 669.979-177.115 831.461-359.693 815.379-359.693 815.379V756.453C-319.531 752.379-286.656 706.234-298.312 670.451-301.245 661.445-305.113 650.821-309.576 639.02-332.54 631.447-355.601 622.936-378.496 613.244L-401.868 557.17C-378.208 567.615-354.302 576.829-330.441 585.058-360.673 506.985-397.749 406.275-397.749 333.743-397.749 59.068-202.968-165.422 68.747-173.932V-174.228H68.8 79.413C79.413-174.229 79.413-174.265 79.413-174.265 80.382-174.271 81.333-174.338 82.304-174.338 82.708-174.338 83.102-174.309 83.505-174.308 83.908-174.309 84.302-174.338 84.706-174.338 85.677-174.338 86.627-174.271 87.597-174.265 87.597-174.265 87.597-174.229 87.597-174.228H98.209 98.263V-173.932C369.978-165.422 564.759 59.068 564.759 333.743" fill="currentColor" transform="matrix(1,0,0,-1,948.999,1330.7422)" /><path d="M0 0C-3.622-.759-2.141-.448-5.763-1.207 7.022-113.222-11.24-219.55-60.017-310.667-117.667-418.36-216.337-478.681-262.94-502.452-261.627-505.733-262.035-504.715-260.722-507.996 79.191-421.18 28.623-108.253 0 0" fill="currentColor" transform="matrix(1,0,0,-1,1554.1323,995.2832)" /><path d="M0 0C-48.777 91.117-67.039 197.445-54.253 309.46-57.875 310.218-56.395 309.908-60.016 310.667-88.64 202.413-139.207-110.513 200.706-197.329 202.019-194.048 201.611-195.066 202.924-191.785 156.32-168.014 57.65-107.693 0 0" fill="currentColor" transform="matrix(1,0,0,-1,570.8921,1305.9502)" /></g></svg>