<svg xmlns="http://www.w3.org/2000/svg" viewBox="0 0 1000 1000" fill="none"><g transform="translate(163.99,70.83) scale(0.720476) translate(-556.81,-414.32)"><path d="M0 0C0 0 23.198 102.645 32.172 193.578H38.433C47.406 102.646 70.605 0 70.605 0 137.494-270.779 35.302-492.644 35.302-492.644 35.302-492.644-66.89-270.779 0 0M-104.978-24.604C-129.543-89.479-205.299-341.159 0-553.787L29.1-693.471H41.504L70.605-553.787C275.902-341.159 200.147-89.479 175.581-24.604 178.745-22.99 177.947-23.397 181.11-21.783 419.616-289.892 126.347-553.787 126.347-553.787 449.646-386.079 501.671-169.333 501.671-169.333H390.188C455.22-52.165 431.732 156.943 431.732 156.943L280.759 151.135 254.425 112.737C187.535 276.952 35.302 497.885 35.302 497.885 35.302 497.885-116.931 276.952-183.82 112.737L-210.155 151.135-361.128 156.943C-361.128 156.943-384.615-52.165-319.584-169.333H-431.066C-431.066-169.333-379.041-386.079-55.742-553.787-55.742-553.787-349.012-289.892-110.507-21.783-107.343-23.397-108.142-22.99-104.978-24.604" fill="currentColor" transform="matrix(1,0,0,-1,987.8799,912.20706)" /><path d="M0 0C0 0 25.067 130.924 185.68 231.627 192.365 224.513 191.007 225.958 197.693 218.845 166.863 176.693 119.059 99.319 90.579-6.115Z" fill="currentColor" transform="matrix(1,0,0,-1,664.1152,692.08889)" /><path d="M0 0C0 0-142.296-13.379-245.784 77.841-245.784 77.841-309.17 128.924-310.464 263.929-310.464 263.929-256.133 88.187 0 0" fill="currentColor" transform="matrix(1,0,0,-1,900.7217,1502.1211)" /><path d="M0 0C160.612-100.703 185.68-231.627 185.68-231.627L95.101-237.742C66.621-132.308 18.816-54.934-12.014-12.782-5.327-5.669-6.686-7.114 0 0" fill="currentColor" transform="matrix(1,0,0,-1,1196.5693,460.4619)" /><path d="M0 0C-1.294-135.005-64.68-186.088-64.68-186.088-168.168-277.308-310.464-263.929-310.464-263.929-54.331-175.742 0 0 0 0" fill="currentColor" transform="matrix(1,0,0,-1,1456.1065,1238.1924)" /></g></svg>