<svg xmlns="http://www.w3.org/2000/svg" viewBox="0 0 1000 1000" fill="none"><g transform="translate(51.55,90.89) scale(0.720476) translate(-387.56,-442.17)"><path d="M0 0-293.131-489.658-273.41-415.227C-273.41-415.227-325.511-299.859-492.981-164.643L-523.994-159.681V-438.796L-553.766-412.746V-143.554L-530.196-133.63-618.273-79.047-706.35-133.63-682.78-143.554V-412.746L-712.552-438.796V-159.681L-743.565-164.643C-911.035-299.859-963.136-415.227-963.136-415.227L-943.415-489.658-1236.546 0C-1239.016-49.744-1240.708-116.651-1237.745-186.339L-1088.055-388.533C-1090.863-390.792-1089.627-389.798-1092.435-392.056L-1235.375-233.185C-1231.742-284.38-1225.219-330.454-1214.26-375.782L-1079.34-500.009C-1081.592-502.748-1080.655-501.609-1082.907-504.348L-1202.831-421.558C-1189.088-464.952-1170.287-503.526-1146.378-546.198-1140.991-554.137-1137.635-558.713-1137.635-558.713L-1029.783-622.911C-1031.322-626.021-1030.731-624.828-1032.27-627.939L-1118.201-598.433C-1078.233-657.057-1022.43-714.953-960.655-765.052V-863.738C-960.655-880.17-964.887-896.325-972.943-910.646L-994.149-948.346-687.742-1135.664-672.855-634.798H-809.312C-875.06-588.899-881.262-523.151-881.262-523.151H-690.223C-697.995-510.433-694.978-493.907-683.212-484.756L-677.818-480.561-618.273-579.388-558.728-480.561-553.333-484.756C-541.568-493.907-538.551-510.433-546.323-523.151H-355.284C-355.284-523.151-361.486-588.899-427.233-634.798H-563.69L-548.804-1135.664-242.397-948.346-263.603-910.646C-271.659-896.325-275.891-880.17-275.891-863.738V-765.052C-214.116-714.953-158.313-657.057-118.345-598.433L-204.276-627.939C-205.814-624.828-205.224-626.021-206.763-622.911L-98.911-558.713C-98.911-558.713-95.555-554.137-90.168-546.198-66.259-503.526-47.458-464.952-33.715-421.558L-153.639-504.348C-155.891-501.609-154.954-502.748-157.206-500.009L-22.286-375.782C-11.327-330.454-4.804-284.38-1.17-233.185L-144.111-392.056C-146.919-389.798-145.683-390.792-148.491-388.533L1.199-186.339C4.162-116.651 2.47-49.744 0 0" fill="currentColor" transform="matrix(1,0,0,-1,1628.273,442.16798)" /></g></svg>