<svg xmlns="http://www.w3.org/2000/svg" viewBox="0 0 1000 1000" fill="none"><g transform="translate(101.94,77.54) scale(0.720476) translate(-480.01,-425.78)"><path d="M0 0C.407 5.972 6.869 9.288 11.708 6.008L61.294-27.604C64.132-25.207 63.998-25.321 66.835-22.924L-53.449 269.157V273.083L-54.202 271.12-54.956 273.083V269.157L-175.241-22.924C-172.403-25.321-172.538-25.207-169.7-27.604L-120.113 6.008C-115.274 9.288-108.812 5.972-108.405 0L-67.181-788.247-137.843-887.681C-133.228-893.912-133.605-893.402-128.99-899.633L-54.203-869.48 20.584-899.633C25.2-893.402 24.822-893.912 29.437-887.681L-41.224-788.247Z" fill="currentColor" transform="matrix(1,0,0,-1,1087.6489,698.86038)" /><path d="M0 0C-2.557-.44-2.259-.389-4.817-.829L-23.965-211.093C29.021-220.919 71.887-239.779 106.637-263.658L-32.131-660.143-18.373-666.191 153.421-303.395C234.884-387.832 251.156-499.767 255.442-529.852L-32.023-728.164-15.215-750.338 457.072-439.981 455.31-420.898 325.319-340.649C306.177-288.049 268.769-229.933 211.297-181.17L262.171-73.736C264.205-69.611 269.775-69.273 272.262-73.123L297.748-112.575C300.469-111.757 300.34-111.796 303.061-110.978L302.753 134.636 303.9 137.431 302.791 136.27 302.828 137.903 301.681 135.107 130.699-35.21C132.02-37.805 131.957-37.682 133.277-40.276L178.404-31.864C182.808-31.043 186.44-35.427 184.984-39.807L150.565-138.149C118.087-119.086 81.247-102.997 39.765-91.402L39.77-91.393Z" fill="currentColor" transform="matrix(1,0,0,-1,1127.9307,778.25198)" /><path d="M0 0-288.229 198.838C-283.942 228.924-267.672 340.858-186.208 425.296L-14.415 62.5-.656 68.547-139.424 465.032C-104.675 488.912-61.809 507.771-8.823 517.597V517.598L-8.822 517.597-27.971 727.862C-30.527 728.302-30.23 728.25-32.787 728.69L-72.557 637.297-72.552 637.288C-114.034 625.693-150.874 609.604-183.353 590.542L-217.772 688.884C-219.227 693.263-215.595 697.647-211.191 696.826L-166.064 688.414C-164.744 691.009-164.807 690.886-163.486 693.48L-334.468 863.798-335.615 866.593-335.578 864.96-336.687 866.122-335.54 863.327-335.848 617.713C-333.127 616.895-333.256 616.934-330.535 616.115L-305.049 655.568C-302.562 659.417-296.992 659.079-294.958 654.955L-244.084 547.52C-301.556 498.758-338.964 440.641-358.106 388.042L-488.097 307.792-489.859 288.709-16.796-22.157Z" fill="currentColor" transform="matrix(1,0,0,-1,969.8643,1506.9424)" /></g></svg>