<svg xmlns="http://www.w3.org/2000/svg" viewBox="0 0 1000 1000" fill="none"><g transform="translate(106.62,57.25) scale(0.720476) translate(-365.23,-373.03)"><path d="M0 0C132.714-225.36 32.23-382.504 32.23-382.504 37.641-162.387-100.527-92.14-100.527-92.14L-100.543-92.143C-70.756-132.337-52.982-182.743-52.982-237.514-52.982-368.79-154.82-475.21-280.443-475.21-406.066-475.21-504.679-368.753-507.903-237.514-509.256-182.477-479.499-91.171-395.187-5.16-339.889 51.253-300.056 111.013-280.507 150.816-202.549 309.553-259.478 490.978-314.853 523.35-314.853 523.35-237.836 346.853-357.315 196.614-416.189 122.583-497.629 62.552-565.455 .243-582.646-14.698-640.344-81.48-661.726-117.066-693.912-170.637-710.341-232.27-710.341-297.34-710.341-522.867-521.603-705.693-288.784-705.693-55.964-705.693 139.085-520.246 139.085-294.72 139.085-177.478 76.866-53.318 0 0" fill="currentColor" transform="matrix(1,0,0,-1,1318.1318,896.37698)" /><path d="M0 0-43.728 201.259-87.455 0C-89.573-9.748-97.341-17.417-107.362-19.654L-321.008-67.337-107.363-115.019C-97.341-117.255-89.573-124.925-87.455-134.673L-43.728-335.933 0-134.673C2.118-124.925 9.887-117.255 19.908-115.019L233.553-67.337 19.908-19.654C9.887-17.417 2.118-9.748 0 0" fill="currentColor" transform="matrix(1,0,0,-1,1078.9365,1091.9937)" /><path d="M0 0-17.219 79.25-34.438 0C-36.667-10.264-44.847-18.339-55.398-20.694L-139.854-39.543-55.398-58.392C-44.847-60.747-36.667-68.823-34.438-79.086L-17.219-158.337 0-79.086C2.23-68.823 10.409-60.747 20.96-58.392L105.416-39.543 20.96-20.694C10.409-18.339 2.23-10.264 0 0" fill="currentColor" transform="matrix(1,0,0,-1,1234.5767,791.3579)" /><path d="M0 0C6.086-23.912-2.128-50.52-22.656-80.251-81.345-165.252-193.557-271.952-254.287-392.088-346.263-574.038-281.79-759.93-218.059-835.922-218.059-835.922-463.036-676.075-340.853-402.339-314.832-344.044-260.974-274.964-157.577-185.396-122.033-154.607-78.083-116.498-41.479-75.612-19.516-51.081-4.734-26.423 0 0" fill="currentColor" transform="matrix(1,0,0,-1,828.2632,636.8721)" /></g></svg>