<svg xmlns="http://www.w3.org/2000/svg" viewBox="0 0 512 512">
  <defs>
    <style>.c { fill: #5b26b0; } @media (prefers-color-scheme: dark) { .c { fill: #c09af0; } }</style>
  </defs>
  <g transform="translate(22,22)" fill="black">
    <path fill-rule="evenodd" d="M90,130 Q90,90,130,90 H382 Q422,90,422,130 V382 Q422,422,382,422 H130 Q90,422,90,382 Z M380,172 A40,40,0,0,1,300,172 A40,40,0,0,1,380,172 Z M296,256 A40,40,0,0,1,216,256 A40,40,0,0,1,296,256 Z M212,340 A40,40,0,0,1,132,340 A40,40,0,0,1,212,340 Z"/>
  </g>
  <g class="c">
    <path fill-rule="evenodd" d="M90,130 Q90,90,130,90 H382 Q422,90,422,130 V382 Q422,422,382,422 H130 Q90,422,90,382 Z M380,172 A40,40,0,0,1,300,172 A40,40,0,0,1,380,172 Z M296,256 A40,40,0,0,1,216,256 A40,40,0,0,1,296,256 Z M212,340 A40,40,0,0,1,132,340 A40,40,0,0,1,212,340 Z"/>
  </g>
</svg>
