<svg xmlns="http://www.w3.org/2000/svg" viewBox="0 0 512 512">
  <defs>
    <style>.c { fill: #577227; } @media (prefers-color-scheme:dark){ .c { fill: #b3c691; } }</style>
  </defs>
  <path d="m255.1494,589.2117l3.6731-43.34c16.6433-1.4697,28.763-3.0529,36.3621-4.7744,7.5863-1.7106,12.8545-4.1551,15.7929-7.3463,2.9383-3.1793,4.408-7.9537,4.408-14.3242,0-5.8766-1.2287-14.4388-3.6731-25.7101l-15.4264-56.563c-25.4691-.9748-47.9998-1.4687-67.5814-1.4687-8.8145,0-27.1787,1.2277-55.0928,3.6731l-15.4264,1.4687-18.3643,56.563c-2.9383,10.7775-4.4075,18.3638-4.4075,22.7718,0,8.815,2.5709,14.9435,7.7132,18.3638,5.1418,3.4322,14.0718,5.1428,26.8118,5.1428h31.5872l3.6727,5.1418-5.1418,44.8087c-6.8638-.4928-21.5554-1.3541-44.0748-2.5709-22.5308-1.2277-43.5929-1.8361-63.1739-1.8361-20.5678,0-39.0585.241-55.4602.7348-16.4136.482-27.2943.9758-32.689,1.4687l5.1423-47.747c11.2595-1.9516,20.5678-6.6115,27.9136-13.9578,7.3458-7.3453,14.1983-19.3396,20.5683-35.9937L189.7725,121.2856l112.3901-11.7533,8.0801,3.6731c7.3463,27.9136,22.6463,85.0958,45.9119,171.5239,23.2537,86.439,43.2136,155.8565,59.8677,208.2525,5.3828,17.6299,12.2353,30.1181,20.5683,37.4634,8.3211,7.3463,20.8092,11.7533,37.4634,13.2229l2.9383,5.1418-5.1418,42.6052c-6.3705-.4928-18.3648-.9867-35.9947-1.4687-17.6299-.4938-35.5117-.7348-53.6236-.7348-25.9629,0-51.3056.8494-76.029,2.5709-24.7352,1.7106-40.5281,2.8119-47.3806,3.3057l-3.6731-5.8766Zm-26.4449-210.0896c5.3838,0,23.5066-.7338,54.3595-2.2035l-43.34-163.8107h-9.5498l-54.359,166.0142h52.8893Z"/>
  <path class="c" d="m279.4224,567.9728l3.6731-43.34c16.6433-1.4697,28.763-3.0529,36.3621-4.7744,7.5863-1.7106,12.8545-4.1551,15.7929-7.3463,2.9383-3.1793,4.408-7.9537,4.408-14.3242,0-5.8766-1.2287-14.4388-3.6731-25.7101l-15.4264-56.563c-25.4691-.9748-47.9998-1.4687-67.5814-1.4687-8.8145,0-27.1787,1.2277-55.0928,3.6731l-15.4264,1.4687-18.3643,56.563c-2.9383,10.7775-4.4075,18.3638-4.4075,22.7718,0,8.815,2.5709,14.9435,7.7132,18.3638,5.1418,3.4322,14.0718,5.1428,26.8118,5.1428h31.5872l3.6727,5.1418-5.1418,44.8087c-6.8638-.4928-21.5554-1.3541-44.0748-2.5709-22.5308-1.2277-43.5929-1.8361-63.1739-1.8361-20.5678,0-39.0585.241-55.4602.7348-16.4136.482-27.2943.9758-32.689,1.4687l5.1423-47.747c11.2595-1.9516,20.5678-6.6115,27.9136-13.9578,7.3458-7.3453,14.1983-19.3396,20.5683-35.9937L214.0455,100.0467l112.3901-11.7533,8.0801,3.6731c7.3463,27.9136,22.6463,85.0958,45.9119,171.5239,23.2537,86.439,43.2136,155.8565,59.8677,208.2525,5.3828,17.6299,12.2353,30.1181,20.5683,37.4634,8.3211,7.3463,20.8092,11.7533,37.4634,13.2229l2.9383,5.1418-5.1418,42.6052c-6.3705-.4928-18.3648-.9867-35.9947-1.4687-17.6299-.4938-35.5117-.7348-53.6236-.7348-25.9629,0-51.3056.8494-76.029,2.5709-24.7352,1.7106-40.5281,2.8119-47.3806,3.3057l-3.6731-5.8766Zm-26.4449-210.0896c5.3838,0,23.5066-.7338,54.3595-2.2035l-43.34-163.8107h-9.5498l-54.359,166.0142h52.8893Z"/>
</svg>
